<svg width="32" height="32" viewBox="0 0 32 32" fill="none" xmlns="http://www.w3.org/2000/svg">
<g clip-path="url(#clip0_2_2)">
<rect width="32" height="32" fill="#1A374D"/>
<path d="M11.4688 12.3C11.4688 12.02 11.4454 11.8007 11.3988 11.642C11.3614 11.4833 11.2914 11.362 11.1888 11.278C11.0954 11.1847 10.9694 11.124 10.8108 11.096C10.6521 11.0587 10.4514 11.0307 10.2088 11.012C10.1528 11.012 10.1061 10.9887 10.0688 10.942C10.0408 10.886 10.0268 10.83 10.0268 10.774C10.0268 10.718 10.0408 10.6667 10.0688 10.62C10.1061 10.5733 10.1528 10.55 10.2088 10.55C10.2928 10.55 10.4188 10.55 10.5868 10.55C10.7641 10.55 10.9601 10.5547 11.1748 10.564C11.3894 10.564 11.6088 10.5687 11.8328 10.578C12.0661 10.578 12.2761 10.5873 12.4628 10.606C12.6494 10.6153 12.8034 10.634 12.9248 10.662C13.0554 10.6807 13.1301 10.7087 13.1488 10.746L15.9908 17.424C16.0094 17.452 16.0281 17.466 16.0468 17.466C16.0748 17.466 16.0981 17.452 16.1168 17.424L18.9168 10.746C18.9261 10.7087 19.0428 10.6807 19.2668 10.662C19.5001 10.634 19.7661 10.6153 20.0648 10.606C20.3728 10.5873 20.6808 10.5733 20.9888 10.564C21.3061 10.5547 21.5581 10.55 21.7448 10.55C21.8008 10.55 21.8381 10.5733 21.8568 10.62C21.8848 10.6667 21.8988 10.718 21.8988 10.774C21.8988 10.83 21.8848 10.8813 21.8568 10.928C21.8288 10.9747 21.7914 11.0027 21.7448 11.012C21.4274 11.068 21.1801 11.1193 21.0028 11.166C20.8254 11.2127 20.6948 11.3013 20.6108 11.432C20.5268 11.5533 20.4754 11.7353 20.4568 11.978C20.4381 12.2207 20.4288 12.566 20.4288 13.014V18.18C20.4288 18.488 20.4474 18.7307 20.4848 18.908C20.5221 19.076 20.5874 19.2067 20.6808 19.3C20.7834 19.3933 20.9234 19.4633 21.1008 19.51C21.2781 19.5473 21.5068 19.58 21.7868 19.608C21.8428 19.6173 21.8848 19.65 21.9128 19.706C21.9501 19.7527 21.9688 19.804 21.9688 19.86C21.9688 19.916 21.9501 19.9673 21.9128 20.014C21.8848 20.0607 21.8381 20.084 21.7728 20.084C21.3994 20.084 21.0401 20.0653 20.6948 20.028C20.3588 19.9907 20.0228 19.972 19.6868 19.972C19.3321 19.972 18.9634 19.9907 18.5808 20.028C18.2074 20.0653 17.8668 20.084 17.5588 20.084C17.5028 20.084 17.4608 20.0607 17.4328 20.014C17.4048 19.9673 17.3908 19.916 17.3908 19.86C17.3908 19.804 17.4048 19.7527 17.4328 19.706C17.4608 19.65 17.5028 19.6173 17.5588 19.608C17.8481 19.58 18.0768 19.5473 18.2448 19.51C18.4221 19.4633 18.5574 19.3933 18.6508 19.3C18.7534 19.2067 18.8188 19.076 18.8468 18.908C18.8841 18.7307 18.9028 18.488 18.9028 18.18V12.986C18.9028 12.9207 18.8654 12.8927 18.7908 12.902C18.7161 12.902 18.6694 12.93 18.6508 12.986L16.6348 17.732C16.4948 18.0587 16.3548 18.418 16.2148 18.81C16.0841 19.1927 15.9534 19.58 15.8228 19.972C15.8134 20 15.7854 20.0187 15.7388 20.028C15.7014 20.0467 15.6594 20.056 15.6128 20.056C15.5661 20.056 15.5194 20.0467 15.4728 20.028C15.4354 20.0187 15.4121 20 15.4028 19.972L12.3228 12.916C12.3041 12.8693 12.2621 12.8413 12.1968 12.832C12.1408 12.8227 12.1128 12.8553 12.1128 12.93V18.138C12.1128 18.474 12.1408 18.7353 12.1968 18.922C12.2528 19.1087 12.3321 19.2487 12.4348 19.342C12.5468 19.4353 12.6821 19.5007 12.8408 19.538C12.9994 19.566 13.1861 19.594 13.4008 19.622C13.4474 19.6313 13.4801 19.6593 13.4988 19.706C13.5268 19.7527 13.5408 19.804 13.5408 19.86C13.5408 19.916 13.5268 19.9673 13.4988 20.014C13.4801 20.0607 13.4428 20.084 13.3868 20.084C13.1814 20.084 12.9528 20.0653 12.7008 20.028C12.4581 19.9907 12.1688 19.972 11.8328 19.972C11.4781 19.972 11.1608 19.9907 10.8808 20.028C10.6101 20.0653 10.3814 20.084 10.1948 20.084C10.1481 20.084 10.1108 20.0607 10.0828 20.014C10.0548 19.9673 10.0361 19.916 10.0268 19.86C10.0268 19.804 10.0408 19.7527 10.0688 19.706C10.0968 19.6593 10.1388 19.6313 10.1948 19.622C10.4374 19.594 10.6381 19.566 10.7968 19.538C10.9648 19.5007 11.0954 19.4353 11.1888 19.342C11.2914 19.2487 11.3614 19.1087 11.3988 18.922C11.4454 18.7353 11.4688 18.474 11.4688 18.138V12.3Z" fill="white"/>
</g>
<rect x="0.5" y="0.5" width="31" height="31" stroke="black"/>
<defs>
<clipPath id="clip0_2_2">
<rect width="32" height="32" fill="white"/>
</clipPath>
</defs>
</svg>
